PathFileType	4	(X/Y/Z)	39_1_32_p1_0-298_filt_butterworth.trc
DataRate	CameraRate	NumFrames	NumMarkers	Units	OrigDataRate	OrigDataStartFrame	OrigNumFrames
41.0	41.0	6	27	m	41.0	111	298
Frame#	Time	RHip			RKnee			RAnkle			RBigToe			RSmallToe			RHeel			LHip			LKnee			LAnkle			LBigToe			LSmallToe			LHeel			Neck			Head			Nose			RShoulder			RElbow			RWrist			RThumb			RIndex			RPinky			LShoulder			LElbow			LWrist			LThumb			LIndex			LPinky			
		X1	Y1	Z1	X2	Y2	Z2	X3	Y3	Z3	X4	Y4	Z4	X5	Y5	Z5	X6	Y6	Z6	X7	Y7	Z7	X8	Y8	Z8	X9	Y9	Z9	X10	Y10	Z10	X11	Y11	Z11	X12	Y12	Z12	X13	Y13	Z13	X14	Y14	Z14	X15	Y15	Z15	X16	Y16	Z16	X17	Y17	Z17	X18	Y18	Z18	X19	Y19	Z19	X20	Y20	Z20	X21	Y21	Z21	X22	Y22	Z22	X23	Y23	Z23	X24	Y24	Z24	X25	Y25	Z25	X26	Y26	Z26	X27	Y27	Z27	
111	2.707317073170732	0.26913319946115216	0.6092354763141821	0.4780447919642021	0.2386976773143971	0.7014808623330693	0.9112714835384503	0.20738587734031558	0.8644841619100638	1.3338284829039984	0.21224752135369077	0.6389332638957845	1.33825407284232	0.27021221543749097	0.7034866976702092	1.3655327160468456	0.1868817039337583	0.9520951110713627	1.3970543485964764	0.06633405847646623	0.6430494233796951	0.4652719261908509	0.04569969822206307	0.7381934741241404	0.8915559579771059	0.026251282618749983	0.8214788394054543	1.292612783533283	0.04461459619060129	0.6416318731832866	1.3281185760772316	-0.0019797014353555814	0.6958666885761278	1.3408377394295172	0.03478607147340674	0.8942764419559802	1.360847575005561	0.22683290913776927	0.6126331225037168	-0.06274530558524193	0.2556538209946777	0.49941537710466044	-0.2897955654044546	0.23808048457384123	0.45987847556187317	-0.16519045054276058	0.3776686131672235	0.595174071736382	0.03226748215715094	0.3976788639914727	0.6263134019998812	0.298795868015875	0.36659285587681706	0.4225534505154357	0.2782273904941521	0.34608546833696757	0.2936318917768078	0.1980637088441224	0.35405257401900697	0.2990345992137129	0.2138510266599375	0.32158040085406747	0.35860165774153585	0.27070403800020554	0.06717706363367706	0.5995225075666032	0.00619274745761059	-0.005600294598888507	0.6352125656603733	0.255347128624527	0.03124881852748027	0.4109217281265003	0.21689180680186437	0.0537816823011476	0.34155451895895306	0.1500432874943609	0.0488463068806525	0.3166517430609871	0.14800134530909353	0.051534767072535126	0.33252020095078966	0.2071787288382882
112	2.731707317073171	0.2691608195068913	0.6100468067633235	0.47821233447057654	0.23863657784626913	0.7009901645480899	0.9114076377044025	0.2073750257430598	0.8645216268377811	1.3337937993334914	0.21240588927384954	0.6379976942560852	1.335127721163206	0.27004724410491343	0.7032347389785911	1.3654284441009175	0.18702695434842553	0.9510816464521774	1.3960253396314874	0.06632153178668346	0.6430865624656156	0.4653748001152186	0.04569784837383511	0.738172951500597	0.8914954158126209	0.02623677234839905	0.8214905697969781	1.2925745121162193	0.04492030709457283	0.6416408409637319	1.3262969307008632	-0.0019671768629353414	0.6958959659163849	1.340846733701121	0.034854459386149214	0.8941303136553701	1.3604604992014364	0.2267243212360561	0.6124521216496821	-0.06272945790239368	0.256418844037836	0.5025535220136125	-0.2899763616658322	0.23807385471541098	0.459297085983723	-0.16529492645638796	0.37735442012993686	0.5948048618016917	0.03513612818576585	0.39875036659871355	0.6127039142215436	0.29770317175627314	0.36651530273192745	0.41876118323979084	0.2726666863347573	0.3460885476125095	0.29620097672417295	0.1907360863061976	0.3535713505753298	0.3005176381649687	0.20802127815021365	0.32740417522998494	0.36715784124991474	0.26502223852718976	0.06711418913636304	0.599375983050739	0.008367038339143582	-0.009687080532380907	0.6273750273629741	0.26200234117783994	0.036761438771661575	0.4026569475938615	0.2158156768859884	0.057174046750389645	0.3437426851498607	0.1380408103014494	0.05006133608990904	0.3253851243415581	0.1340579140630914	0.05047392392435997	0.32560723000727776	0.2028751904004299
113	2.756097560975609	0.26938585206743826	0.6100255878798684	0.47822307716054835	0.23849513022691574	0.700445880371464	0.9112372459724503	0.20739798954826846	0.8645420944966262	1.3337781950627416	0.21250267263693934	0.637949736468948	1.3348099740643355	0.26926995418717836	0.699369650374823	1.363678832807719	0.18745549386312166	0.9507556159517815	1.3964453451585694	0.06631363193194928	0.642883873042014	0.4654188475819293	0.045672538947470004	0.7381248367191588	0.8913019416889534	0.026237772791817958	0.8215202828838515	1.2925516568741697	0.04641136531868639	0.6417130089073276	1.3254003439678246	-0.0019282885834584775	0.6959251394914916	1.340851179526509	0.0348041745058224	0.8941722369933269	1.3604038976959896	0.2266652806710851	0.6124067209604264	-0.06269193950049824	0.2576666315034479	0.5078241891190405	-0.29032535533594983	0.23813603639648157	0.45922919713616356	-0.16518475312569575	0.3771873061858876	0.5954415132593869	0.039670078025244575	0.39839163934361493	0.6094826148531971	0.29930522680200256	0.3654604118814508	0.41343511607432903	0.2712157670178391	0.348421656151266	0.28561800558590633	0.18750562079092467	0.3599917185505617	0.27503409206912494	0.2031419101774815	0.3328720124942108	0.3476374527256909	0.2595712195491138	0.0669182856887073	0.5990404559459276	0.009758294374029803	-0.009774565525592126	0.6247891967179595	0.2599033188456296	0.03993123553267126	0.39616722695826095	0.2138272810183819	0.05719785748171562	0.34566641648492746	0.13231841370692615	0.04889846552704971	0.32748368876747286	0.13157812341551423	0.049754065646616386	0.31452460191328	0.2023981310247321
114	2.7804878048780486	0.26913340212912906	0.6099277270981802	0.4783182075524045	0.23843095564907618	0.7003646948653923	0.9111618611032566	0.2073989822956648	0.8646002889330338	1.3338057091534186	0.21247068688922974	0.6382119234868094	1.3367504756694804	0.26802282158056545	0.6930244510499585	1.360750293583036	0.18761558949015417	0.9508772172281481	1.3970081345185337	0.06630326249140775	0.6426883575016533	0.46541018317930183	0.045658724768714465	0.7382697659511583	0.8915430927335096	0.026242733983665337	0.8215239967940015	1.2925540759903584	0.04894488145489354	0.6419170720869514	1.325550078561884	-0.0018943529000964355	0.6959672812606973	1.340860851183042	0.033732935137367484	0.8934931492118635	1.3612022598417932	0.22674784728116482	0.61243152035875	-0.06269635278184038	0.2584204893373405	0.5110370410153671	-0.29054729428602566	0.2381810912680785	0.45937503879072994	-0.16425749179608373	0.3771848591983684	0.5966415758729126	0.04307857528470996	0.3981089315413477	0.6298376487238863	0.2997683775757653	0.3637407165261295	0.4109737903341723	0.2728439922619727	0.35360856823612213	0.25718761784693267	0.19435685399427524	0.36441895998395885	0.2403219153423914	0.2073841882277543	0.3395279023445716	0.30235331378361197	0.25980436620002234	0.06685189492865116	0.5987558916118678	0.009211669945473481	-0.002160997525111464	0.6297827608112467	0.25440698053125094	0.03810085317324935	0.3945700688091712	0.21250398426732764	0.05443562604885169	0.33507894640374103	0.1403775536020297	0.04758676491422167	0.3062440758602858	0.14295305794838792	0.0470331969203891	0.2969339379728406	0.2037065380870393
115	2.804878048780488	0.26721128308138103	0.6104359996104652	0.47853478256587784	0.2383936789562372	0.7004780949307187	0.9111870651927547	0.20739825499176492	0.8645586119375677	1.3338203901355379	0.21222858320239524	0.6384521792808263	1.3391934468244524	0.26710746324626594	0.6889710618142684	1.3588662222428047	0.1873121086130886	0.9508309326488733	1.3958700149883239	0.06626728186246376	0.6426852864383041	0.4654372580044108	0.04570565276569186	0.7387645273577964	0.8926421980688495	0.026248764788998853	0.8215563580652172	1.2926209445954802	0.05058898152324287	0.6421323986339754	1.325791910959672	-0.0018942292155565957	0.6960002909495157	1.340874733837378	0.03182599244832654	0.8920261791379687	1.3623980252215007	0.22685452142151308	0.6124251585464067	-0.06278597702410522	0.25844423953949025	0.5112031697592884	-0.29054169383943584	0.23813470620917365	0.4594376986308153	-0.16278886912571316	0.37716806865572494	0.597142252124252	0.04295115025907577	0.39812623256352386	0.6582613975699406	0.29539818968692333	0.36274046278475475	0.41093122711386343	0.27578801206463854	0.35809917882537623	0.22525454166150305	0.21019311009879404	0.36122059791219824	0.21652943683874898	0.22364498694675655	0.3443523011402907	0.2635379552304685	0.2714085219308403	0.06709776852901268	0.598782092618678	0.00746734331804281	0.006460929155209489	0.6428944449376889	0.24750574346927692	0.03550860564939383	0.3923182471585975	0.21667423739990344	0.052721979380434714	0.2997252485542058	0.1611652810271253	0.04523328649838987	0.25706920262393484	0.16598196126606568	0.042555915426260915	0.27712319216066605	0.21161843557068924
116	2.8292682926829267	0.26462880070632017	0.611305387890939	0.47798101985866803	0.23835808750730383	0.7004385036218128	0.9111857396071322	0.20740244523645363	0.8643849727165485	1.3338259504303418	0.21178536975279744	0.638679822548399	1.3403598693907777	0.26718701846470216	0.6892743086803071	1.3590116681125213	0.18709956249724605	0.9506569565556398	1.396914229529831	0.06623760901699652	0.6427556290909949	0.4656368096876281	0.045769160735314784	0.7392251358846482	0.8936779217879628	0.026267158715725804	0.8217317728694524	1.2927543945977222	0.05067522999270675	0.6422676569584268	1.3258253538082245	-0.0019101016125911547	0.6960167058919389	1.3409001989631786	0.030430007106318005	0.8907944306425263	1.3629186725259637	0.2269004155051029	0.6124148305881331	-0.06290278894678684	0.25830869960445507	0.5107274385961587	-0.29048537616131426	0.2380144491769352	0.45939511546328204	-0.16188537589996183	0.37712914849010565	0.5973579091677963	0.04002791266436395	0.3972765566035955	0.6705174146097116	0.2887556517620079	0.36275097688182	0.41046666688250405	0.2795328246825527	0.35931758921030305	0.21101990861490127	0.225797996809103	0.355575210380049	0.20832219070242566	0.24036392340179946	0.3437948404213342	0.2548200550043574	0.28822981591380015	0.06734854131205975	0.5980749889866099	0.0066142085405679705	0.007566369776125318	0.6578230567344463	0.23968428204644115	0.0353969319834626	0.3874747674498975	0.22412425340616313	0.05372062398548099	0.24654514323502172	0.18348281494330532	0.04519987002146945	0.20147638410924262	0.18908184971232767	0.037400381187693905	0.26629193731842005	0.23117222998853382
